#!OML:ASF X:\für Bonn\!DataBase\2005_08_11_Bastian_Final\c3d\Bastian.ASF
:FULLY-SPECIFIED
:DEGREES
256
root 10.4774 17.2964 -3.43202 187.542 78.8885 -167.609
lowerback 25.5105 -2.85151 5.42255
upperback 15.184 -0.595484 3.56035
thorax 2.70867 0.676924 0.974591
lowerneck -7.83475 -9.1764 -3.83314
upperneck -10.4635 -11.2745 9.85608
head -1.16989 -5.53351 3.62011
rclavicle 0 -3.65764e-014
rhumerus -25.3656 32.711 -83.9725
rradius 33.6879
rwrist -7.19979
rhand -18.5525 2.68129
rfingers 7.12502
rthumb 7.73713 -27.1572
lclavicle 0 -3.65764e-014
lhumerus -6.67984 -26.7507 84.9808
lradius 37.9452
lwrist 20.2598
lhand -11.9959 -9.39101
lfingers 7.12502
lthumb 14.0609 20.1133
rfemur -16.6086 -1.63381 24.3967
rtibia 40.924
rfoot -12.7566 -7.9471
rtoes -2.0118
lfemur -1.08145 3.77318 -17.1256
ltibia 30.6074
lfoot -17.7621 -4.52975
ltoes -14.1204
257
root 10.5459 17.3163 -3.41839 187.228 78.7587 -167.939
lowerback 24.7445 -2.79211 5.31138
upperback 14.9662 -0.666055 3.50975
thorax 2.81475 0.610046 0.984893
lowerneck -7.76661 -9.15561 -3.93141
upperneck -9.94315 -11.2941 9.74744
head -1.01057 -5.53915 3.58241
rclavicle 4.45278e-014 1.43125e-014
rhumerus -26.2115 32.3178 -84.6029
rradius 33.5385
rwrist -7.33654
rhand -18.5851 2.61716
rfingers 7.12502
rthumb 7.70558 -27.2224
lclavicle 4.45278e-014 1.43125e-014
lhumerus -7.15119 -26.663 85.1969
lradius 37.7406
lwrist 20.2998
lhand -11.9363 -9.31107
lfingers 7.12502
lthumb 14.1184 20.1893
rfemur -16.1222 -1.66838 24.4373
rtibia 40.5113
rfoot -12.9397 -8.04474
rtoes -1.79034
lfemur -0.439962 3.56001 -17.0889
ltibia 29.7776
lfoot -17.6459 -4.40918
ltoes -14.8512
258
root 10.6154 17.3342 -3.4037 187.114 78.6317 -168.054
lowerback 23.9776 -2.72844 5.20918
upperback 14.7644 -0.723391 3.48195
thorax 2.94528 0.551446 1.01183
lowerneck -7.61465 -9.13345 -4.04493
upperneck -9.51921 -11.304 9.66641
head -0.895434 -5.54281 3.56608
rclavicle 5.56597e-015 -7.4743e-014
rhumerus -26.9854 31.8613 -85.1563
rradius 33.338
rwrist -7.41171
rhand -18.5378 2.61846
rfingers 7.12502
rthumb 7.75127 -27.2195
lclavicle 5.56597e-015 -7.4743e-014
lhumerus -7.60171 -26.5844 85.4203
lradius 37.5162
lwrist 20.3347
lhand -11.891 -9.24417
lfingers 7.12502
lthumb 14.1621 20.2531
rfemur -15.6324 -1.70215 24.5327
rtibia 40.1196
rfoot -13.0775 -8.15952
rtoes -1.79658
lfemur 0.175885 3.28211 -17.0214
ltibia 29.0413
lfoot -17.5567 -4.23459
ltoes -15.4348
259
root 10.6851 17.3481 -3.38938 186.967 78.5188 -168.173
lowerback 23.2261 -2.66817 5.12231
upperback 14.5923 -0.774597 3.43818
thorax 3.10654 0.500854 1.01192
lowerneck -7.49818 -9.10173 -4.19291
upperneck -9.07578 -11.2955 9.65012
head -0.763225 -5.53552 3.57617
rclavicle -7.15625e-015 -3.18055e-015
rhumerus -27.684 31.3818 -85.6672
rradius 33.1596
rwrist -7.5919
rhand -18.4524 2.54685
rfingers 7.12502
rthumb 7.83366 -27.288
lclavicle -7.15625e-015 -3.18055e-015
lhumerus -8.03423 -26.5308 85.5957
lradius 37.3477
lwrist 20.3857
lhand -11.9064 -9.19396
lfingers 7.12502
lthumb 14.1472 20.3044
rfemur -15.1275 -1.72555 24.6199
rtibia 39.7705
rfoot -13.2784 -8.25544
rtoes -1.73183
lfemur 0.799026 2.93832 -16.9773
ltibia 28.3705
lfoot -17.5403 -3.96824
ltoes -16.2337
260
root 10.7539 17.3597 -3.37464 186.877 78.3938 -168.178
lowerback 22.5565 -2.63027 5.06781
upperback 14.4262 -0.835972 3.37456
thorax 3.23841 0.449805 0.974881
lowerneck -7.2939 -9.05227 -4.26293
upperneck -8.72262 -11.2635 9.62701
head -0.682304 -5.52181 3.57989
rclavicle 2.06736e-014 1.11319e-013
rhumerus -28.3545 30.8419 -86.1801
rradius 32.9754
rwrist -7.68628
rhand -18.3443 2.47495
rfingers 7.12502
rthumb 7.93807 -27.356
lclavicle 2.06736e-014 1.11319e-013
lhumerus -8.46478 -26.4725 85.7405
lradius 37.1677
lwrist 20.4887
lhand -11.9893 -9.1868
lfingers 7.12502
lthumb 14.0673 20.3171
rfemur -14.5848 -1.76173 24.74
rtibia 39.4427
rfoot -13.4681 -8.37604
rtoes -1.83504
lfemur 1.43066 2.60017 -16.9015
ltibia 27.787
lfoot -17.5467 -3.71775
ltoes -16.9838
261
root 10.8235 17.3689 -3.36044 186.754 78.2771 -168.179
lowerback 21.9232 -2.58765 5.01041
upperback 14.2732 -0.883728 3.32168
thorax 3.37107 0.406687 0.948685
lowerneck -7.0156 -9.02007 -4.44446
upperneck -8.42439 -11.2433 9.71804
head -0.616858 -5.51412 3.64718
rclavicle -4.77083e-015 -3.97569e-015
rhumerus -28.9869 30.2508 -86.6192
rradius 32.8037
rwrist -7.73568
rhand -18.2569 2.43513
rfingers 7.12502
rthumb 8.02239 -27.3926
lclavicle -4.77083e-015 -3.97569e-015
lhumerus -8.87728 -26.3591 85.9089
lradius 36.9672
lwrist 20.4549
lhand -12.068 -9.19602
lfingers 7.12502
lthumb 13.9915 20.3131
rfemur -14.0212 -1.79606 24.8497
rtibia 39.1555
rfoot -13.6883 -8.46769
rtoes -1.55177
lfemur 2.08638 2.216 -16.8374
ltibia 27.2628
lfoot -17.5791 -3.45266
ltoes -17.5405
262
root 10.8924 17.3756 -3.34548 186.779 78.1523 -168.041
lowerback 21.2863 -2.55305 4.97052
upperback 14.1269 -0.936642 3.27068
thorax 3.51584 0.362901 0.915404
lowerneck -6.77656 -8.96314 -4.57699
upperneck -8.11148 -11.193 9.78566
head -0.546882 -5.49122 3.69716
rclavicle -1.59028e-015 1.82882e-014
rhumerus -29.5598 29.6781 -87.0339
rradius 32.6351
rwrist -7.85661
rhand -18.109 2.36107
rfingers 7.12502
rthumb 8.16512 -27.4612
lclavicle -1.59028e-015 1.82882e-014
lhumerus -9.27515 -26.2106 86.0464
lradius 36.7802
lwrist 20.4355
lhand -12.1247 -9.16098
lfingers 7.12502
lthumb 13.9368 20.3519
rfemur -13.4912 -1.81277 25.0045
rtibia 38.8972
rfoot -13.9166 -8.60803
rtoes -1.51443
lfemur 2.68484 1.79899 -16.752
ltibia 26.808
lfoot -17.6199 -3.15858
ltoes -18.0895
